<svg id="icons" xmlns="http://www.w3.org/2000/svg" viewBox="0 0 110 110"><title>beer-bottle-glass</title><circle cx="55" cy="55" r="55" fill="#f2633a"/><g id="beer-bottle-glass"><g id="bottle"><path d="M39,29l-.89,13.42a2,2,0,0,1-1.67,1.84h0A5.31,5.31,0,0,0,32,49.5V83a2,2,0,0,0,2,2H50a2,2,0,0,0,2-2V49.5a5.31,5.31,0,0,0-4.44-5.24h0a2,2,0,0,1-1.67-1.84L45,29" fill="#fff"/><polyline points="45.53 37 45 29 42 29 41.47 37" fill="#ffd147"/><path d="M46,44l-.47-7H41.47L41,44c-.05.93-.65,2.11-1.57,2.26l-1.08.18A4,4,0,0,0,35,50.39V85H50a2,2,0,0,0,2-2V47Z" fill="#ffd147"/><path d="M39,29l-.89,13.42a2,2,0,0,1-1.67,1.84h0A5.31,5.31,0,0,0,32,49.5V83a2,2,0,0,0,2,2H50a2,2,0,0,0,2-2V49.5a5.31,5.31,0,0,0-4.44-5.24h0a2,2,0,0,1-1.67-1.84L45,29" fill="none" stroke="#6e2a27" stroke-linecap="round" stroke-linejoin="round" stroke-width="2"/><path d="M39.51,25h5A1.51,1.51,0,0,1,46,26.51V29a0,0,0,0,1,0,0H38a0,0,0,0,1,0,0V26.51A1.51,1.51,0,0,1,39.51,25Z" fill="#fff"/><rect x="38" y="25" width="5" height="4" fill="#fff"/><rect x="41" y="25" width="5" height="4" fill="#ccd1d9"/><path d="M39.51,25h5A1.51,1.51,0,0,1,46,26.51V29a0,0,0,0,1,0,0H38a0,0,0,0,1,0,0V26.51A1.51,1.51,0,0,1,39.51,25Z" fill="none" stroke="#6e2a27" stroke-linecap="round" stroke-linejoin="round" stroke-width="2"/><rect x="35" y="57" width="10" height="16" fill="#f2633a"/><rect x="35" y="60" width="10" height="10" fill="#fff"/><rect x="32" y="57" width="13" height="16" fill="none" stroke="#6e2a27" stroke-miterlimit="10" stroke-width="2"/><line x1="35" y1="63" x2="40" y2="63" fill="none" stroke="#6e2a27" stroke-miterlimit="10" stroke-width="2"/><line x1="35" y1="67" x2="42" y2="67" fill="none" stroke="#6e2a27" stroke-miterlimit="10" stroke-width="2"/></g><g id="glass"><path d="M72.77,85c4.81,0,2.94-2.81,1.92-7-2.19-9-1.46-16.15,1.92-25s-.52-20-.52-20H57.9S54,44.15,57.38,53s4.1,16,1.92,25c-1,4-2.89,7,1.92,7Z" fill="#fff"/><path d="M78,44H59a25.91,25.91,0,0,0,1.48,9c3.34,8.85,4.05,16,1.9,25-.36,1.51-.85,2.88-1.07,4H75.69c-.23-1.1-.71-2.45-1.08-4-2.16-9-1.44-16.15,1.9-25A25.91,25.91,0,0,0,78,44Z" fill="#ffd147"/><path d="M61.31,82c-.36,1.84,0,3,3,3h8.42c3,0,3.37-1.12,3-3" fill="#ffd147"/><path d="M58,33,58,31.94C58.28,28,60.44,28,61.15,28h.27l.65.07.46-.8A4.67,4.67,0,0,1,66.9,25a4.86,4.86,0,0,1,4.56,2.3l.45.79.65-.07.29,0c.71,0,2.87,0,3.12,3.94L76,33Z" fill="#fff"/><path d="M60.22,33.94V34A43.06,43.06,0,0,0,59,44H78c0-3.72-1.39-8.78-2-11" fill="#fff"/><path d="M76,33s-1-6-6.91-6a4.67,4.67,0,0,0-4.37,2.28l-.46.8L63.61,30h-.27c-.71,0-2.87,0-3.12,3.94" fill="#fff"/><path d="M68,32h5a0,0,0,0,1,0,0V42a2,2,0,0,1-2,2H70a2,2,0,0,1-2-2V32A0,0,0,0,1,68,32Z" fill="#fff"/><path d="M73,33v8.5A2.5,2.5,0,0,1,70.5,44h0A2.5,2.5,0,0,1,68,41.5V33H57.9S54,44.15,57.38,53s4.1,16,1.92,25c-1,4-2.89,7,1.92,7H72.77c4.81,0,2.94-2.81,1.92-7-2.19-9-1.46-16.15,1.92-25s-.52-20-.52-20Z" fill="none" stroke="#6e2a27" stroke-linecap="round" stroke-linejoin="round" stroke-width="2"/><path d="M76,33c0-1.47,0-5-3.15-5a3,3,0,0,0-2.12,1" fill="none" stroke="#6e2a27" stroke-linecap="round" stroke-miterlimit="10" stroke-width="2"/><path d="M63,29a3.06,3.06,0,0,0-1.85-1C58,28,58,31.53,58,33" fill="none" stroke="#6e2a27" stroke-linecap="round" stroke-miterlimit="10" stroke-width="2"/><path d="M62,29c0-1,1-4,4.9-4C71,25,72,28,72,29" fill="none" stroke="#6e2a27" stroke-miterlimit="10" stroke-width="2"/><polygon points="72 50.64 69.5 53.36 70.33 57 67 55.18 63.67 57 64.5 53.36 62 50.64 65.33 49.73 67 47 68.67 49.73 72 50.64" fill="#f2633a"/></g></g></svg>